<mxfile host="Electron" modified="2024-04-25T09:37:23.861Z" agent="Mozilla/5.0 (Windows NT 10.0; Win64; x64) AppleWebKit/537.36 (KHTML, like Gecko) draw.io/24.2.5 Chrome/120.0.6099.109 Electron/28.1.0 Safari/537.36" etag="pvpwnXyVi9G4NUlLxccp" version="24.2.5" type="device">
  <diagram name="Page-1" id="gZ2owAIogtQZYCgnZvjZ">
    <mxGraphModel dx="1098" dy="988" grid="1" gridSize="10" guides="1" tooltips="1" connect="1" arrows="1" fold="1" page="1" pageScale="1" pageWidth="850" pageHeight="1100" math="0" shadow="0">
      <root>
        <mxCell id="0" />
        <mxCell id="1" parent="0" />
        <mxCell id="5E7DoI3xS24oE3ILswI5-1" value="Actor" style="shape=umlActor;verticalLabelPosition=bottom;verticalAlign=top;html=1;outlineConnect=0;" parent="1" vertex="1">
          <mxGeometry x="170" y="470" width="30" height="60" as="geometry" />
        </mxCell>
        <mxCell id="5E7DoI3xS24oE3ILswI5-2" value="Страницы" style="ellipse;whiteSpace=wrap;html=1;" parent="1" vertex="1">
          <mxGeometry x="400" y="151" width="180" height="80" as="geometry" />
        </mxCell>
        <mxCell id="5E7DoI3xS24oE3ILswI5-3" value="&lt;div&gt;Создавать&lt;/div&gt;" style="ellipse;whiteSpace=wrap;html=1;" parent="1" vertex="1">
          <mxGeometry x="600" y="51" width="170" height="80" as="geometry" />
        </mxCell>
        <mxCell id="5E7DoI3xS24oE3ILswI5-4" value="Редактировать" style="ellipse;whiteSpace=wrap;html=1;" parent="1" vertex="1">
          <mxGeometry x="600" y="151" width="170" height="80" as="geometry" />
        </mxCell>
        <mxCell id="5E7DoI3xS24oE3ILswI5-5" value="&lt;div&gt;Удалять&lt;/div&gt;" style="ellipse;whiteSpace=wrap;html=1;" parent="1" vertex="1">
          <mxGeometry x="600" y="251" width="170" height="80" as="geometry" />
        </mxCell>
        <mxCell id="5E7DoI3xS24oE3ILswI5-15" value="&lt;div&gt;Фотографии&lt;/div&gt;&lt;div&gt;галереи&lt;/div&gt;" style="ellipse;whiteSpace=wrap;html=1;" parent="1" vertex="1">
          <mxGeometry x="400" y="420" width="180" height="80" as="geometry" />
        </mxCell>
        <mxCell id="5E7DoI3xS24oE3ILswI5-16" value="&lt;div&gt;Создавать&lt;/div&gt;" style="ellipse;whiteSpace=wrap;html=1;" parent="1" vertex="1">
          <mxGeometry x="610" y="370" width="170" height="80" as="geometry" />
        </mxCell>
        <mxCell id="5E7DoI3xS24oE3ILswI5-18" value="&lt;div&gt;Удалять&lt;/div&gt;" style="ellipse;whiteSpace=wrap;html=1;" parent="1" vertex="1">
          <mxGeometry x="610" y="470" width="170" height="80" as="geometry" />
        </mxCell>
        <mxCell id="5E7DoI3xS24oE3ILswI5-21" value="&lt;div&gt;Авторизация&lt;/div&gt;" style="ellipse;whiteSpace=wrap;html=1;" parent="1" vertex="1">
          <mxGeometry x="100" y="180" width="170" height="80" as="geometry" />
        </mxCell>
        <mxCell id="5E7DoI3xS24oE3ILswI5-27" value="Администратор" style="text;html=1;align=center;verticalAlign=middle;whiteSpace=wrap;rounded=0;" parent="1" vertex="1">
          <mxGeometry x="140" y="550" width="90" height="30" as="geometry" />
        </mxCell>
        <mxCell id="5E7DoI3xS24oE3ILswI5-29" value="" style="endArrow=none;html=1;rounded=0;exitX=1;exitY=0.3333333333333333;exitDx=0;exitDy=0;exitPerimeter=0;entryX=0;entryY=0.625;entryDx=0;entryDy=0;entryPerimeter=0;" parent="1" source="5E7DoI3xS24oE3ILswI5-1" target="5E7DoI3xS24oE3ILswI5-2" edge="1">
          <mxGeometry width="50" height="50" relative="1" as="geometry">
            <mxPoint x="400" y="570" as="sourcePoint" />
            <mxPoint x="450" y="520" as="targetPoint" />
          </mxGeometry>
        </mxCell>
        <mxCell id="5E7DoI3xS24oE3ILswI5-30" value="" style="endArrow=none;html=1;rounded=0;entryX=0;entryY=0.5;entryDx=0;entryDy=0;" parent="1" source="5E7DoI3xS24oE3ILswI5-1" target="5E7DoI3xS24oE3ILswI5-15" edge="1">
          <mxGeometry width="50" height="50" relative="1" as="geometry">
            <mxPoint x="400" y="570" as="sourcePoint" />
            <mxPoint x="380" y="600" as="targetPoint" />
          </mxGeometry>
        </mxCell>
        <mxCell id="5E7DoI3xS24oE3ILswI5-31" value="" style="endArrow=none;startArrow=none;html=1;rounded=0;startFill=0;endFill=0;" parent="1" edge="1">
          <mxGeometry width="50" height="50" relative="1" as="geometry">
            <mxPoint x="180" y="460" as="sourcePoint" />
            <mxPoint x="180" y="270" as="targetPoint" />
          </mxGeometry>
        </mxCell>
        <mxCell id="5E7DoI3xS24oE3ILswI5-35" value="Рассылка" style="ellipse;whiteSpace=wrap;html=1;" parent="1" vertex="1">
          <mxGeometry x="400" y="690" width="180" height="80" as="geometry" />
        </mxCell>
        <mxCell id="5E7DoI3xS24oE3ILswI5-36" value="&lt;div&gt;Добавлять&lt;/div&gt;" style="ellipse;whiteSpace=wrap;html=1;" parent="1" vertex="1">
          <mxGeometry x="600" y="590" width="170" height="80" as="geometry" />
        </mxCell>
        <mxCell id="5E7DoI3xS24oE3ILswI5-38" value="&lt;div&gt;Удалять&lt;/div&gt;" style="ellipse;whiteSpace=wrap;html=1;" parent="1" vertex="1">
          <mxGeometry x="600" y="690" width="170" height="80" as="geometry" />
        </mxCell>
        <mxCell id="5E7DoI3xS24oE3ILswI5-39" value="" style="endArrow=none;html=1;rounded=0;entryX=0;entryY=0.5;entryDx=0;entryDy=0;" parent="1" source="5E7DoI3xS24oE3ILswI5-1" target="5E7DoI3xS24oE3ILswI5-35" edge="1">
          <mxGeometry width="50" height="50" relative="1" as="geometry">
            <mxPoint x="400" y="570" as="sourcePoint" />
            <mxPoint x="390" y="860" as="targetPoint" />
          </mxGeometry>
        </mxCell>
        <mxCell id="jwgnbBkh8dnL9n2rnlHo-1" value="" style="endArrow=none;html=1;rounded=0;entryX=0;entryY=0.5;entryDx=0;entryDy=0;" parent="1" target="5E7DoI3xS24oE3ILswI5-3" edge="1">
          <mxGeometry width="50" height="50" relative="1" as="geometry">
            <mxPoint x="490" y="151" as="sourcePoint" />
            <mxPoint x="540" y="101" as="targetPoint" />
          </mxGeometry>
        </mxCell>
        <mxCell id="jwgnbBkh8dnL9n2rnlHo-2" value="" style="endArrow=none;html=1;rounded=0;entryX=0;entryY=0.5;entryDx=0;entryDy=0;exitX=0.5;exitY=1;exitDx=0;exitDy=0;" parent="1" source="5E7DoI3xS24oE3ILswI5-2" target="5E7DoI3xS24oE3ILswI5-5" edge="1">
          <mxGeometry width="50" height="50" relative="1" as="geometry">
            <mxPoint x="470" y="311" as="sourcePoint" />
            <mxPoint x="580" y="251" as="targetPoint" />
          </mxGeometry>
        </mxCell>
        <mxCell id="jwgnbBkh8dnL9n2rnlHo-3" value="" style="endArrow=none;html=1;rounded=0;exitX=1;exitY=0.5;exitDx=0;exitDy=0;" parent="1" source="5E7DoI3xS24oE3ILswI5-2" target="5E7DoI3xS24oE3ILswI5-4" edge="1">
          <mxGeometry width="50" height="50" relative="1" as="geometry">
            <mxPoint x="500" y="241" as="sourcePoint" />
            <mxPoint x="610" y="301" as="targetPoint" />
          </mxGeometry>
        </mxCell>
        <mxCell id="jwgnbBkh8dnL9n2rnlHo-4" value="" style="endArrow=none;html=1;rounded=0;entryX=0;entryY=0.5;entryDx=0;entryDy=0;" parent="1" edge="1" target="5E7DoI3xS24oE3ILswI5-16">
          <mxGeometry width="50" height="50" relative="1" as="geometry">
            <mxPoint x="490" y="420" as="sourcePoint" />
            <mxPoint x="600" y="360" as="targetPoint" />
          </mxGeometry>
        </mxCell>
        <mxCell id="jwgnbBkh8dnL9n2rnlHo-5" value="" style="endArrow=none;html=1;rounded=0;entryX=0;entryY=0.5;entryDx=0;entryDy=0;exitX=0.5;exitY=1;exitDx=0;exitDy=0;" parent="1" edge="1" target="5E7DoI3xS24oE3ILswI5-18">
          <mxGeometry width="50" height="50" relative="1" as="geometry">
            <mxPoint x="490" y="500" as="sourcePoint" />
            <mxPoint x="600" y="560" as="targetPoint" />
          </mxGeometry>
        </mxCell>
        <mxCell id="jwgnbBkh8dnL9n2rnlHo-7" value="" style="endArrow=none;html=1;rounded=0;entryX=0;entryY=0.5;entryDx=0;entryDy=0;" parent="1" edge="1">
          <mxGeometry width="50" height="50" relative="1" as="geometry">
            <mxPoint x="490" y="690" as="sourcePoint" />
            <mxPoint x="600" y="630" as="targetPoint" />
          </mxGeometry>
        </mxCell>
        <mxCell id="jwgnbBkh8dnL9n2rnlHo-8" value="" style="endArrow=none;html=1;rounded=0;entryX=0;entryY=0.5;entryDx=0;entryDy=0;exitX=1;exitY=0.5;exitDx=0;exitDy=0;" parent="1" edge="1" target="5E7DoI3xS24oE3ILswI5-38" source="5E7DoI3xS24oE3ILswI5-35">
          <mxGeometry width="50" height="50" relative="1" as="geometry">
            <mxPoint x="490" y="770" as="sourcePoint" />
            <mxPoint x="600" y="830" as="targetPoint" />
          </mxGeometry>
        </mxCell>
        <mxCell id="tfxTFFcdAavxkLghmrbS-1" value="&lt;div&gt;Отправлять рассылку&lt;/div&gt;" style="ellipse;whiteSpace=wrap;html=1;" vertex="1" parent="1">
          <mxGeometry x="600" y="780" width="170" height="80" as="geometry" />
        </mxCell>
        <mxCell id="tfxTFFcdAavxkLghmrbS-2" value="" style="endArrow=none;html=1;rounded=0;entryX=0;entryY=0.5;entryDx=0;entryDy=0;exitX=0.5;exitY=1;exitDx=0;exitDy=0;" edge="1" parent="1" source="5E7DoI3xS24oE3ILswI5-35">
          <mxGeometry width="50" height="50" relative="1" as="geometry">
            <mxPoint x="490" y="880" as="sourcePoint" />
            <mxPoint x="600" y="820" as="targetPoint" />
          </mxGeometry>
        </mxCell>
      </root>
    </mxGraphModel>
  </diagram>
</mxfile>
